<?xml version="1.0" encoding="UTF-8" standalone="no"?><!DOCTYPE svg PUBLIC "-//W3C//DTD SVG 1.1//EN" "http://www.w3.org/Graphics/SVG/1.1/DTD/svg11.dtd"><svg width="100%" height="100%" viewBox="0 0 102 77" version="1.1" xmlns="http://www.w3.org/2000/svg" xmlns:xlink="http://www.w3.org/1999/xlink" xml:space="preserve" xmlns:serif="http://www.serif.com/" style="fill-rule:evenodd;clip-rule:evenodd;stroke-linejoin:round;stroke-miterlimit:2;"><g><g><circle cx="50.658" cy="4.133" r="4.08" style="fill:#001656;"/><path d="M55.429,4.099c0.813,-2.1 3.178,-3.144 5.278,-2.331c2.1,0.813 3.144,3.178 2.331,5.278c-0.813,2.099 -3.178,3.144 -5.278,2.331c-2.099,-0.813 -3.144,-3.178 -2.331,-5.278Z" style="fill:#001656;"/><path d="M69.72,12.75c-1.512,1.653 -4.08,1.793 -5.768,0.281c-1.653,-1.512 -1.793,-4.08 -0.281,-5.768c1.512,-1.653 4.08,-1.794 5.768,-0.281c1.653,1.512 1.794,4.115 0.281,5.768Z" style="fill:#001656;fill-rule:nonzero;"/><path d="M70.257,13.176c2.015,-1.005 4.467,-0.186 5.472,1.829c1.006,2.015 0.186,4.467 -1.829,5.473c-2.015,1.005 -4.467,0.185 -5.472,-1.829c-1.005,-2.015 -0.186,-4.467 1.829,-5.473Z" style="fill:#001656;"/><path d="M74.996,29.174c-2.251,0.211 -4.221,-1.442 -4.432,-3.693c-0.211,-2.251 1.442,-4.22 3.658,-4.431c2.251,-0.211 4.221,1.442 4.432,3.658c0.211,2.286 -1.407,4.255 -3.658,4.466Z" style="fill:#001656;fill-rule:nonzero;"/><path d="M72.886,37.721c-2.181,-0.598 -3.412,-2.849 -2.814,-5.03c0.598,-2.145 2.849,-3.411 5.029,-2.813c2.181,0.598 3.412,2.849 2.814,5.029c-0.633,2.146 -2.884,3.412 -5.029,2.814Z" style="fill:#001656;fill-rule:nonzero;"/><path d="M67.821,44.896c-1.794,-1.337 -2.145,-3.904 -0.809,-5.698c1.337,-1.794 3.904,-2.145 5.698,-0.809c1.794,1.337 2.145,3.904 0.809,5.698c-1.337,1.793 -3.904,2.145 -5.698,0.809Z" style="fill:#001656;fill-rule:nonzero;"/><path d="M60.541,49.784c-1.196,-1.899 -0.598,-4.431 1.301,-5.592c1.899,-1.196 4.432,-0.598 5.592,1.302c1.196,1.899 0.598,4.431 -1.301,5.592c-1.899,1.16 -4.432,0.598 -5.592,-1.302Z" style="fill:#001656;fill-rule:nonzero;"/><path d="M51.959,51.684c-0.422,-2.216 1.02,-4.326 3.236,-4.748c2.216,-0.422 4.326,1.02 4.748,3.235c0.422,2.216 -1.02,4.326 -3.236,4.748c-2.18,0.422 -4.326,-1.02 -4.748,-3.235Z" style="fill:#001656;fill-rule:nonzero;"/><path d="M43.272,50.382c0.422,-2.215 2.532,-3.657 4.748,-3.271c2.216,0.422 3.658,2.533 3.271,4.748c-0.422,2.216 -2.532,3.658 -4.748,3.271c-2.216,-0.422 -3.658,-2.532 -3.271,-4.748Z" style="fill:#001656;fill-rule:nonzero;"/><path d="M35.64,46.021c1.196,-1.899 3.693,-2.497 5.592,-1.336c1.899,1.195 2.497,3.693 1.336,5.592c-1.195,1.899 -3.692,2.497 -5.592,1.336c-1.899,-1.16 -2.497,-3.693 -1.336,-5.592Z" style="fill:#001656;fill-rule:nonzero;"/><path d="M30.118,39.198c1.794,-1.372 4.361,-1.02 5.698,0.774c1.371,1.793 1.02,4.361 -0.774,5.697c-1.794,1.372 -4.326,1.02 -5.698,-0.773c-1.371,-1.759 -1.02,-4.326 0.774,-5.698Z" style="fill:#001656;fill-rule:nonzero;"/><path d="M27.406,30.846c2.164,-0.624 4.427,0.627 5.05,2.79c0.624,2.164 -0.626,4.427 -2.79,5.05c-2.164,0.624 -4.427,-0.627 -5.05,-2.79c-0.624,-2.164 0.627,-4.427 2.79,-5.05Z" style="fill:#001656;"/><path d="M27.902,22.07c2.251,0.211 3.904,2.18 3.693,4.431c-0.211,2.251 -2.18,3.904 -4.431,3.693c-2.251,-0.211 -3.904,-2.18 -3.693,-4.431c0.211,-2.216 2.18,-3.869 4.431,-3.693Z" style="fill:#001656;fill-rule:nonzero;"/><path d="M31.525,14.086c2.005,0.985 2.849,3.447 1.864,5.452c-0.985,2.004 -3.447,2.848 -5.452,1.864c-2.004,-0.985 -2.848,-3.447 -1.864,-5.452c0.985,-2.04 3.447,-2.849 5.452,-1.864Z" style="fill:#001656;fill-rule:nonzero;"/><path d="M37.785,7.931c1.513,1.653 1.407,4.221 -0.246,5.768c-1.653,1.513 -4.22,1.407 -5.768,-0.246c-1.512,-1.653 -1.407,-4.221 0.246,-5.768c1.688,-1.512 4.256,-1.407 5.768,0.246Z" style="fill:#001656;fill-rule:nonzero;"/><path d="M45.839,4.449c0.809,2.111 -0.211,4.467 -2.286,5.276c-2.11,0.809 -4.466,-0.211 -5.275,-2.286c-0.809,-2.11 0.211,-4.467 2.321,-5.276c2.075,-0.844 4.431,0.211 5.24,2.286Z" style="fill:#001656;fill-rule:nonzero;"/><path d="M50.025,11.554c0.668,1.653 -0.176,3.552 -1.829,4.185c-1.653,0.668 -3.552,-0.176 -4.186,-1.829c-0.668,-1.653 0.176,-3.552 1.829,-4.185c1.653,-0.668 3.517,0.141 4.186,1.829Z" style="fill:#001656;fill-rule:nonzero;"/><path d="M57.129,12.644c-0.105,1.794 -1.653,3.13 -3.447,2.99c-1.793,-0.141 -3.13,-1.689 -2.989,-3.447c0.141,-1.794 1.688,-3.13 3.447,-2.99c1.758,0.106 3.13,1.653 2.989,3.447Z" style="fill:#001656;fill-rule:nonzero;"/><path d="M63.073,16.689c-0.879,1.547 -2.849,2.11 -4.396,1.231c-1.548,-0.88 -2.111,-2.849 -1.231,-4.397c0.879,-1.547 2.849,-2.11 4.396,-1.231c1.583,0.88 2.11,2.849 1.231,4.397Z" style="fill:#001656;fill-rule:nonzero;"/><path d="M66.696,22.914c-1.478,1.02 -3.482,0.668 -4.502,-0.774c-1.02,-1.477 -0.668,-3.482 0.774,-4.502c1.477,-1.02 3.481,-0.668 4.501,0.774c1.056,1.477 0.704,3.482 -0.773,4.502Z" style="fill:#001656;fill-rule:nonzero;"/><path d="M67.329,30.089c-1.759,0.316 -3.447,-0.88 -3.728,-2.638c-0.317,-1.759 0.879,-3.447 2.637,-3.728c1.759,-0.317 3.447,0.879 3.729,2.638c0.316,1.758 -0.88,3.446 -2.638,3.728Z" style="fill:#001656;fill-rule:nonzero;"/><path d="M62.54,32.832c0.485,-1.718 2.274,-2.72 3.993,-2.235c1.718,0.485 2.72,2.274 2.235,3.993c-0.485,1.719 -2.274,2.72 -3.993,2.235c-1.719,-0.485 -2.72,-2.274 -2.235,-3.993Z" style="fill:#001656;"/><path d="M59.591,41.836c-1.336,-1.161 -1.477,-3.236 -0.316,-4.572c1.195,-1.337 3.235,-1.478 4.572,-0.317c1.336,1.196 1.477,3.236 0.316,4.572c-1.16,1.372 -3.235,1.513 -4.572,0.317Z" style="fill:#001656;fill-rule:nonzero;"/><path d="M52.768,44.122c-0.703,-1.653 0.035,-3.552 1.688,-4.256c1.653,-0.703 3.552,0.035 4.256,1.688c0.703,1.653 -0.035,3.553 -1.688,4.256c-1.653,0.704 -3.553,-0.035 -4.256,-1.688Z" style="fill:#001656;fill-rule:nonzero;"/><path d="M45.628,43.243c0.071,-1.794 1.583,-3.166 3.342,-3.131c1.793,0.071 3.165,1.583 3.13,3.342c-0.071,1.793 -1.583,3.165 -3.341,3.13c-1.794,-0.035 -3.201,-1.548 -3.131,-3.341Z" style="fill:#001656;fill-rule:nonzero;"/><path d="M39.544,39.409c0.809,-1.583 2.778,-2.216 4.361,-1.372c1.583,0.844 2.216,2.779 1.372,4.362c-0.809,1.582 -2.779,2.215 -4.362,1.371c-1.582,-0.844 -2.215,-2.778 -1.371,-4.361Z" style="fill:#001656;fill-rule:nonzero;"/><path d="M35.71,33.289c1.442,-1.09 3.447,-0.809 4.537,0.633c1.09,1.442 0.809,3.447 -0.633,4.537c-1.442,1.091 -3.447,0.809 -4.537,-0.633c-1.09,-1.407 -0.809,-3.446 0.633,-4.537Z" style="fill:#001656;fill-rule:nonzero;"/><path d="M34.725,25.868c1.759,-0.351 3.447,0.774 3.834,2.533c0.352,1.758 -0.774,3.446 -2.532,3.833c-1.759,0.352 -3.447,-0.774 -3.834,-2.532c-0.352,-1.759 0.774,-3.482 2.532,-3.834Z" style="fill:#001656;fill-rule:nonzero;"/><path d="M37.363,18.834c1.724,0.422 2.814,2.181 2.357,3.904c-0.422,1.723 -2.181,2.814 -3.904,2.357c-1.724,-0.423 -2.779,-2.181 -2.357,-3.904c0.422,-1.724 2.181,-2.779 3.904,-2.357Z" style="fill:#001656;fill-rule:nonzero;"/><path d="M42.744,13.664c1.372,1.125 1.583,3.165 0.458,4.537c-1.126,1.372 -3.166,1.583 -4.537,0.457c-1.372,-1.125 -1.583,-3.165 -0.458,-4.572c1.126,-1.336 3.166,-1.547 4.537,-0.422Z" style="fill:#001656;fill-rule:nonzero;"/><path d="M48.688,18.623c0.387,1.161 -0.211,2.462 -1.407,2.849c-1.16,0.387 -2.462,-0.211 -2.848,-1.407c-0.387,-1.161 0.246,-2.462 1.406,-2.849c1.161,-0.387 2.427,0.246 2.849,1.407Z" style="fill:#001656;fill-rule:nonzero;"/><path d="M53.964,18.729c-0.282,1.195 -1.513,1.934 -2.708,1.653c-1.196,-0.282 -1.935,-1.513 -1.653,-2.709c0.281,-1.195 1.512,-1.934 2.708,-1.653c1.231,0.282 1.969,1.513 1.653,2.709Z" style="fill:#001656;fill-rule:nonzero;"/><path d="M58.395,21.648c-0.879,0.844 -2.321,0.809 -3.165,-0.071c-0.844,-0.879 -0.809,-2.321 0.07,-3.165c0.88,-0.844 2.322,-0.809 3.166,0.07c0.879,0.88 0.844,2.322 -0.071,3.166Z" style="fill:#001656;fill-rule:nonzero;"/><path d="M60.541,26.501c-1.231,0.247 -2.392,-0.562 -2.638,-1.758c-0.246,-1.231 0.563,-2.392 1.758,-2.638c1.231,-0.246 2.392,0.563 2.638,1.759c0.246,1.231 -0.527,2.391 -1.758,2.637Z" style="fill:#001656;fill-rule:nonzero;"/><path d="M59.767,31.742c-1.161,-0.457 -1.723,-1.759 -1.266,-2.919c0.457,-1.161 1.758,-1.724 2.919,-1.267c1.161,0.458 1.723,1.759 1.266,2.92c-0.492,1.16 -1.794,1.723 -2.919,1.266Z" style="fill:#001656;fill-rule:nonzero;"/><path d="M56.25,35.716c-0.739,-0.985 -0.528,-2.392 0.492,-3.13c1.02,-0.739 2.392,-0.493 3.13,0.492c0.739,0.985 0.493,2.392 -0.492,3.13c-0.985,0.739 -2.392,0.528 -3.13,-0.492Z" style="fill:#001656;fill-rule:nonzero;"/><path d="M51.185,37.228c-0.07,-1.231 0.88,-2.286 2.111,-2.391c1.231,-0.071 2.286,0.879 2.391,2.11c0.071,1.231 -0.879,2.286 -2.11,2.392c-1.266,0.07 -2.321,-0.88 -2.392,-2.111Z" style="fill:#001656;fill-rule:nonzero;"/><path d="M46.086,35.751c0.597,-1.09 1.969,-1.477 3.059,-0.879c1.091,0.598 1.478,1.97 0.88,3.06c-0.598,1.09 -1.97,1.477 -3.06,0.879c-1.09,-0.633 -1.477,-1.969 -0.879,-3.06Z" style="fill:#001656;fill-rule:nonzero;"/><path d="M42.604,31.742c1.09,-0.598 2.462,-0.176 3.024,0.914c0.598,1.091 0.176,2.462 -0.914,3.025c-1.09,0.598 -2.462,0.176 -3.06,-0.915c-0.563,-1.055 -0.141,-2.426 0.95,-3.024Z" style="fill:#001656;fill-rule:nonzero;"/><path d="M41.795,26.501c1.231,0.071 2.18,1.161 2.075,2.392c-0.071,1.231 -1.161,2.181 -2.392,2.075c-1.231,-0.07 -2.18,-1.161 -2.075,-2.392c0.07,-1.231 1.161,-2.145 2.392,-2.075Z" style="fill:#001656;fill-rule:nonzero;"/><path d="M43.94,21.648c0.985,0.738 1.196,2.145 0.457,3.13c-0.738,0.985 -2.145,1.196 -3.13,0.457c-0.985,-0.738 -1.196,-2.145 -0.457,-3.13c0.703,-0.985 2.11,-1.196 3.13,-0.457Z" style="fill:#001656;fill-rule:nonzero;"/><path d="M49.427,23.195c0.809,0.669 0.914,1.829 0.246,2.638c-0.668,0.809 -1.829,0.915 -2.638,0.281c-0.809,-0.668 -0.914,-1.828 -0.246,-2.637c0.668,-0.809 1.829,-0.95 2.638,-0.282Z" style="fill:#001656;fill-rule:nonzero;"/><path d="M54.28,23.969c-0.176,1.02 -1.125,1.723 -2.145,1.548c-1.02,-0.176 -1.723,-1.126 -1.548,-2.146c0.176,-1.02 1.126,-1.723 2.146,-1.547c1.055,0.175 1.723,1.125 1.547,2.145Z" style="fill:#001656;fill-rule:nonzero;"/><path d="M54.72,25.109c0.963,-0.362 2.039,0.127 2.4,1.09c0.362,0.963 -0.127,2.038 -1.09,2.4c-0.963,0.362 -2.039,-0.127 -2.4,-1.09c-0.362,-0.963 0.127,-2.039 1.09,-2.4Z" style="fill:#001656;"/><path d="M52.909,32.41c-0.809,-0.668 -0.915,-1.829 -0.247,-2.638c0.669,-0.809 1.829,-0.914 2.638,-0.246c0.809,0.668 0.915,1.829 0.246,2.638c-0.668,0.774 -1.828,0.914 -2.637,0.246Z" style="fill:#001656;fill-rule:nonzero;"/><path d="M48.055,31.601c0.176,-1.02 1.126,-1.723 2.146,-1.547c1.019,0.175 1.723,1.125 1.547,2.145c-0.176,1.02 -1.125,1.688 -2.145,1.548c-1.02,-0.176 -1.724,-1.126 -1.548,-2.146Z" style="fill:#001656;fill-rule:nonzero;"/><path d="M46.332,26.994c0.985,-0.352 2.04,0.14 2.391,1.09c0.352,0.985 -0.14,2.04 -1.09,2.392c-0.985,0.351 -2.04,-0.141 -2.392,-1.091c-0.386,-0.949 0.106,-2.04 1.091,-2.391Z" style="fill:#001656;fill-rule:nonzero;"/><path d="M52.205,26.572c0.704,0.562 0.774,1.582 0.211,2.251c-0.562,0.668 -1.582,0.773 -2.251,0.211c-0.668,-0.563 -0.773,-1.583 -0.211,-2.251c0.563,-0.669 1.548,-0.774 2.251,-0.211Z" style="fill:#001656;fill-rule:nonzero;"/></g><path d="M11.513,73.56c-0.247,0.879 -0.458,1.794 -0.669,2.708c-0.808,0.141 -1.512,0.246 -2.18,0.317c-0.668,0.07 -1.196,0.105 -1.688,0.105c-1.02,0 -1.97,-0.176 -2.884,-0.492c-0.915,-0.317 -1.689,-0.809 -2.357,-1.513c-0.668,-0.703 -1.125,-1.512 -1.336,-2.497c-0.246,-0.985 -0.282,-2.04 -0.141,-3.2c0.141,-1.267 0.457,-2.427 0.985,-3.482c0.527,-1.055 1.196,-1.97 2.04,-2.708c0.844,-0.739 1.793,-1.267 2.849,-1.653c1.055,-0.352 2.145,-0.528 3.27,-0.528c1.091,-0 2.287,0.141 3.588,0.422c-0.035,0.668 -0.07,1.161 -0.106,1.442l-0.07,1.231c-0.739,-0.211 -1.372,-0.387 -1.864,-0.457c-0.492,-0.071 -0.985,-0.141 -1.442,-0.141c-0.739,0 -1.442,0.141 -2.145,0.352c-0.704,0.246 -1.337,0.633 -1.9,1.16c-0.562,0.528 -1.055,1.196 -1.407,1.97c-0.351,0.774 -0.597,1.548 -0.668,2.392c-0.105,0.984 -0.035,1.864 0.211,2.637c0.246,0.774 0.739,1.407 1.442,1.9c0.704,0.492 1.618,0.738 2.708,0.738c1.02,-0.035 2.287,-0.246 3.764,-0.703Zm11.536,-12.943c1.02,-0 1.969,0.141 2.884,0.457c0.914,0.317 1.688,0.809 2.321,1.513c0.633,0.703 1.09,1.512 1.372,2.462c0.281,0.949 0.316,2.039 0.211,3.27c-0.141,1.161 -0.422,2.286 -0.88,3.342c-0.457,1.055 -1.09,1.969 -1.934,2.743c-0.809,0.774 -1.759,1.336 -2.849,1.723c-1.09,0.387 -2.216,0.563 -3.376,0.563c-1.091,0 -2.11,-0.176 -3.095,-0.528c-0.985,-0.351 -1.759,-0.879 -2.427,-1.617c-0.633,-0.739 -1.09,-1.548 -1.301,-2.498c-0.211,-0.949 -0.247,-1.969 -0.141,-3.059c0.141,-1.196 0.457,-2.357 0.95,-3.447c0.527,-1.09 1.195,-2.005 2.039,-2.743c0.845,-0.704 1.794,-1.267 2.849,-1.653c1.091,-0.352 2.181,-0.528 3.377,-0.528Zm-0.422,2.427c-1.02,-0 -1.97,0.281 -2.779,0.809c-0.809,0.527 -1.477,1.231 -1.969,2.145c-0.493,0.915 -0.774,1.899 -0.915,2.954c-0.105,0.985 -0.035,1.9 0.246,2.709c0.282,0.844 0.774,1.477 1.513,1.899c0.738,0.422 1.547,0.668 2.426,0.668c0.669,0 1.337,-0.141 1.97,-0.387c0.633,-0.246 1.231,-0.633 1.723,-1.16c0.493,-0.528 0.915,-1.161 1.196,-1.9c0.317,-0.738 0.493,-1.512 0.598,-2.321c0.07,-0.739 0.07,-1.477 -0.07,-2.145c-0.141,-0.704 -0.387,-1.302 -0.739,-1.794c-0.387,-0.492 -0.844,-0.879 -1.407,-1.09c-0.527,-0.282 -1.16,-0.387 -1.793,-0.387Zm8.23,13.365c0.281,-1.372 0.562,-2.884 0.809,-4.573l0.844,-5.557c0.281,-2.004 0.527,-3.798 0.703,-5.381c0.809,0 1.477,0.036 2.005,0.036c0.422,-0 1.02,-0 1.793,-0.036c0.598,1.513 1.442,3.447 2.568,5.839c1.09,2.391 1.97,4.396 2.638,5.979l1.547,-10.552c0.035,-0.246 0.071,-0.668 0.141,-1.266c0.633,0 1.125,0.036 1.442,0.036c0.141,-0 0.598,-0 1.442,-0.036l-0.703,4.186l-1.091,7.139l-0.562,4.221c-0.704,-0 -1.302,-0.035 -1.829,-0.035c-0.387,-0 -1.055,-0 -1.935,0.035c-0.281,-0.668 -0.457,-1.161 -0.598,-1.513c-0.211,-0.492 -0.703,-1.547 -1.442,-3.095c-0.492,-1.019 -1.09,-2.356 -1.829,-3.974c-0.527,-1.196 -0.984,-2.216 -1.371,-3.095c-0.176,1.231 -0.528,3.517 -1.02,6.823c-0.176,1.372 -0.422,2.955 -0.633,4.819c-0.633,-0 -1.091,-0.036 -1.372,-0.036c-0.246,0 -0.738,0 -1.547,0.036Zm14.631,-0c0.879,-0 1.442,-0.036 1.758,-0.036l1.653,0.036c0.95,-1.864 1.935,-3.728 2.919,-5.522l5.382,-0c0.175,0.703 0.351,1.653 0.597,2.778c0.211,1.161 0.387,2.04 0.493,2.744c0.844,-0 1.442,-0.036 1.794,-0.036l1.547,0.036l-0.317,-1.266l-2.145,-9.637l-0.95,-4.643c-0.633,0 -1.266,0.035 -1.899,0.035c-0.351,0 -0.985,0 -1.864,-0.035c-0.703,1.301 -1.547,2.849 -2.602,4.608l-3.306,5.732c-1.161,2.075 -2.181,3.799 -3.06,5.206Zm7.561,-7.879l1.864,-3.341l1.02,-1.899l1.02,5.24l-3.904,0Zm21.841,5.03c-0.246,0.879 -0.492,1.794 -0.668,2.708c-0.809,0.141 -1.512,0.246 -2.18,0.317c-0.669,0.07 -1.196,0.105 -1.689,0.105c-1.02,0 -1.969,-0.176 -2.884,-0.492c-0.914,-0.317 -1.688,-0.809 -2.356,-1.513c-0.668,-0.703 -1.126,-1.512 -1.337,-2.497c-0.246,-0.985 -0.281,-2.04 -0.14,-3.2c0.14,-1.267 0.457,-2.427 0.985,-3.482c0.527,-1.055 1.195,-1.97 2.039,-2.708c0.845,-0.739 1.794,-1.267 2.849,-1.653c1.055,-0.352 2.146,-0.528 3.271,-0.528c1.09,-0 2.286,0.141 3.588,0.422c-0.036,0.668 -0.071,1.161 -0.106,1.442l-0.07,1.231c-0.739,-0.211 -1.372,-0.387 -1.864,-0.457c-0.493,-0.071 -0.985,-0.141 -1.442,-0.141c-0.739,0 -1.442,0.141 -2.146,0.352c-0.703,0.246 -1.336,0.633 -1.899,1.16c-0.563,0.528 -1.055,1.196 -1.407,1.97c-0.351,0.774 -0.598,1.548 -0.668,2.392c-0.106,0.984 -0.035,1.864 0.211,2.637c0.246,0.774 0.739,1.407 1.442,1.9c0.703,0.492 1.618,0.738 2.708,0.738c1.02,-0.035 2.286,-0.246 3.763,-0.703Zm4.678,2.849c0.176,-0.844 0.387,-1.935 0.598,-3.306c0.246,-1.372 0.387,-2.427 0.492,-3.236l-3.622,-9.004c0.774,0 1.371,0.035 1.794,0.035c0.422,0 0.949,0 1.653,-0.035c0.211,0.774 0.562,1.794 1.02,2.99c0.457,1.196 0.844,2.321 1.16,3.341l3.623,-5.452c0.105,-0.175 0.316,-0.492 0.527,-0.879c0.669,0 1.231,0.035 1.759,0.035c0.281,0 0.809,0 1.653,-0.035l-6.577,9.215l-0.422,2.884c-0.141,0.844 -0.281,2.005 -0.457,3.411c-0.739,0 -1.266,-0.035 -1.583,-0.035c-0.352,0.035 -0.879,0.035 -1.618,0.071Zm12.451,-0c0.949,-0 1.512,-0.036 1.688,-0.036l1.547,0.036c0.071,-0.598 0.141,-1.161 0.211,-1.724l0.176,-1.336l1.161,-7.984l0.352,-2.075l0.773,-0c1.126,-0 2.322,0.035 3.553,0.105c0.07,-0.597 0.175,-1.406 0.386,-2.497l-5.662,0c-2.146,0 -4.221,0 -6.155,-0.035c-0.07,0.563 -0.176,1.407 -0.352,2.497l2.357,-0.07l2.004,-0l-0.668,4.854l-0.774,4.959l-0.597,3.306Z" style="fill:#001656;fill-rule:nonzero;"/></g></svg>